<?xml version="1.0" standalone="no"?>
<!DOCTYPE svg PUBLIC "-//W3C//DTD SVG 20010904//EN"
 "http://www.w3.org/TR/2001/REC-SVG-20010904/DTD/svg10.dtd">
<svg version="1.0" xmlns="http://www.w3.org/2000/svg"
 width="512.000000pt" height="512.000000pt" viewBox="0 0 512.000000 512.000000"
 preserveAspectRatio="xMidYMid meet">

<g transform="translate(0.000000,512.000000) scale(0.100000,-0.100000)"
fill="#000000" stroke="none">
<path d="M253 4550 c-89 -54 -103 -172 -29 -246 39 -39 93 -52 151 -36 l40 11
126 -125 125 -125 -30 -61 c-25 -51 -31 -74 -31 -132 0 -39 4 -89 8 -111 l8
-40 -161 -98 -160 -99 -46 22 c-109 53 -227 -18 -227 -136 0 -119 138 -197
233 -131 56 37 75 72 74 132 l0 52 160 101 161 100 45 -44 c89 -86 207 -119
321 -90 157 41 248 152 257 313 l5 83 76 24 76 24 30 -28 c57 -55 117 -63 185
-27 104 55 108 206 8 267 -44 26 -122 27 -165 0 -35 -21 -73 -85 -73 -123 0
-21 -9 -26 -74 -45 -92 -27 -93 -27 -102 0 -11 36 -95 118 -149 146 -37 18
-71 27 -128 30 -89 5 -147 -8 -211 -48 l-43 -28 -122 122 -123 123 12 43 c6
24 9 58 5 76 -7 39 -46 89 -86 109 -40 21 -108 19 -146 -5z"/>
<path d="M843 3236 c-60 -20 -107 -51 -152 -102 -75 -86 -71 -11 -71 -1224 0
-1228 -6 -1139 81 -1234 67 -74 130 -100 234 -101 62 0 91 5 130 23 93 43 163
130 184 230 15 74 15 2090 0 2164 -21 100 -92 188 -184 229 -61 27 -164 34
-222 15z"/>
<path d="M1543 3231 c-140 -48 -216 -154 -217 -301 -1 -130 65 -234 183 -289
l56 -26 393 -3 392 -3 0 -893 c0 -1006 -4 -945 77 -1036 60 -67 129 -102 214
-108 136 -10 248 52 309 172 l35 69 3 898 3 898 392 3 392 3 65 36 c232 127
223 451 -15 569 l-50 25 -1090 2 c-1029 2 -1093 2 -1142 -16z"/>
</g>
</svg>
