<svg id="svg" version="1.1" xmlns="http://www.w3.org/2000/svg" xmlns:xlink="http://www.w3.org/1999/xlink" width="400" height="400" viewBox="0, 0, 400,400"><g id="svgg"><path id="path0" d="M22.225 41.831 C 21.817 42.130,21.346 42.290,21.179 42.187 C 20.614 41.838,16.777 44.120,15.520 45.553 C 9.404 52.518,11.501 63.538,19.696 67.493 C 21.937 68.574,25.655 69.373,26.960 69.054 C 27.532 68.914,28.495 68.696,29.100 68.570 C 29.705 68.443,30.613 68.139,31.117 67.893 C 32.108 67.411,33.932 69.054,45.435 80.792 L 49.936 85.385 48.614 87.792 C 45.454 93.548,44.337 102.982,46.128 108.773 C 46.498 109.968,46.800 110.993,46.800 111.050 C 46.800 111.108,45.630 111.856,44.201 112.712 C 42.772 113.568,41.692 114.358,41.801 114.468 C 41.910 114.577,41.744 114.667,41.430 114.667 C 40.893 114.667,39.064 115.755,32.705 119.860 C 31.222 120.817,29.909 121.600,29.787 121.600 C 29.664 121.600,28.204 122.518,26.542 123.639 L 23.519 125.679 21.060 124.471 C 16.952 122.455,10.002 121.979,8.973 123.644 C 8.852 123.840,8.403 124.000,7.976 124.000 C 7.549 124.000,7.200 124.180,7.200 124.400 C 7.200 124.620,6.968 124.800,6.685 124.800 C 6.402 124.800,5.330 125.655,4.304 126.700 C -1.758 132.872,-0.795 143.026,6.321 147.967 C 9.448 150.138,16.263 151.279,17.675 149.868 C 17.968 149.575,18.433 149.411,18.709 149.503 C 19.443 149.748,22.369 147.904,24.126 146.090 C 26.780 143.348,27.599 141.213,27.603 137.032 L 27.607 133.400 30.103 131.841 C 31.477 130.984,33.831 129.487,35.335 128.515 C 36.840 127.542,38.640 126.420,39.335 126.020 C 42.035 124.468,48.252 120.668,49.262 119.953 C 50.772 118.882,51.239 118.993,53.019 120.843 C 55.245 123.157,58.197 125.273,61.000 126.564 C 62.320 127.172,63.713 127.834,64.095 128.035 C 64.477 128.236,65.231 128.400,65.771 128.400 C 66.311 128.400,66.867 128.584,67.006 128.809 C 67.325 129.326,79.898 129.289,80.219 128.770 C 80.344 128.566,80.889 128.400,81.429 128.400 C 81.969 128.400,82.723 128.240,83.105 128.045 C 83.487 127.850,85.240 126.995,87.000 126.145 C 91.443 124.000,96.389 119.087,98.647 114.575 C 101.093 109.687,101.648 107.460,101.880 101.599 C 102.060 97.049,102.457 96.400,105.056 96.400 C 105.549 96.400,106.064 96.220,106.200 96.000 C 106.336 95.780,106.876 95.600,107.400 95.600 C 107.924 95.600,108.464 95.420,108.600 95.200 C 108.736 94.980,109.276 94.800,109.800 94.800 C 110.324 94.800,110.875 94.603,111.024 94.362 C 111.191 94.091,112.003 94.616,113.147 95.736 C 119.955 102.395,132.139 100.560,135.707 92.338 C 137.057 89.228,137.200 88.645,137.194 86.281 C 137.180 80.361,132.126 73.200,127.962 73.200 C 127.569 73.200,127.146 73.036,127.021 72.835 C 126.727 72.358,119.673 72.358,119.379 72.835 C 119.254 73.036,118.791 73.200,118.348 73.200 C 117.427 73.200,114.787 74.942,112.943 76.767 C 111.375 78.318,110.422 80.260,109.594 83.589 C 108.897 86.393,109.202 86.150,105.200 87.076 C 104.650 87.203,103.963 87.495,103.674 87.724 C 103.385 87.954,102.755 88.191,102.274 88.252 C 101.793 88.312,100.815 88.481,100.100 88.626 C 99.264 88.796,98.800 88.734,98.800 88.453 C 98.800 84.848,88.803 76.319,82.400 74.460 C 81.630 74.237,80.280 73.849,79.400 73.599 C 76.731 72.840,65.560 73.494,64.973 74.444 C 64.852 74.640,64.418 74.800,64.010 74.800 C 63.182 74.800,58.197 77.330,57.091 78.311 C 56.240 79.067,56.738 79.496,45.917 68.691 L 38.397 61.182 38.998 59.742 C 41.694 53.290,36.230 42.000,30.411 42.000 C 29.991 42.000,29.545 41.834,29.420 41.632 C 29.055 41.042,23.078 41.208,22.225 41.831 M69.800 144.623 C 69.360 144.725,68.010 145.005,66.800 145.246 C 57.236 147.151,48.955 155.751,46.817 166.000 C 46.180 169.053,46.433 334.579,47.078 337.174 C 51.238 353.899,70.889 362.143,86.504 353.714 C 91.822 350.844,97.457 343.518,99.053 337.400 C 99.590 335.341,99.702 166.859,99.167 165.000 C 97.923 160.673,97.526 159.786,95.277 156.306 C 90.079 148.264,78.007 142.728,69.800 144.623 M125.200 144.652 C 114.332 146.274,105.494 153.649,102.699 163.430 C 102.123 165.444,101.883 177.081,102.411 177.407 C 102.625 177.539,102.800 177.973,102.800 178.370 C 102.800 181.771,110.972 193.200,113.404 193.200 C 113.695 193.200,113.993 193.335,114.067 193.500 C 114.140 193.665,115.100 194.225,116.200 194.744 C 117.300 195.263,118.513 195.848,118.895 196.044 C 119.277 196.240,119.916 196.400,120.315 196.400 C 120.714 196.400,121.211 196.563,121.420 196.763 C 122.223 197.530,127.068 197.693,153.900 197.852 L 181.600 198.016 181.600 266.280 C 181.600 307.336,181.749 335.033,181.973 335.772 C 182.178 336.447,182.577 337.810,182.859 338.800 C 184.058 343.002,189.329 350.862,190.473 350.155 C 190.664 350.037,190.770 350.114,190.710 350.325 C 190.437 351.283,195.249 354.306,199.892 356.094 C 203.342 357.422,212.994 357.417,216.850 356.084 C 226.626 352.705,234.204 343.385,234.642 334.200 C 234.705 332.880,234.767 301.697,234.778 264.905 L 234.800 198.011 262.500 197.863 C 293.286 197.698,294.371 197.620,299.800 195.164 C 309.006 191.000,314.949 181.557,314.881 171.200 C 314.854 167.078,314.429 164.122,313.786 163.589 C 313.490 163.343,313.335 162.914,313.442 162.636 C 314.406 160.123,303.502 147.024,301.484 148.272 C 301.260 148.410,301.192 148.337,301.333 148.109 C 301.622 147.640,298.544 146.211,295.200 145.261 C 293.160 144.682,128.943 144.093,125.200 144.652 " stroke="none" fill="#2454a4" fill-rule="evenodd"></path><path id="path1" d="M303.400 71.986 C 302.960 72.183,300.341 72.356,297.580 72.372 C 294.819 72.387,292.389 72.567,292.180 72.771 C 291.971 72.975,290.360 73.240,288.600 73.359 C 282.697 73.760,280.203 74.065,279.820 74.434 C 279.611 74.635,278.497 74.800,277.344 74.800 C 276.191 74.800,275.136 74.980,275.000 75.200 C 274.864 75.420,273.964 75.600,273.000 75.600 C 272.036 75.600,271.136 75.780,271.000 76.000 C 270.864 76.220,270.101 76.400,269.304 76.400 C 268.037 76.400,261.703 77.702,257.600 78.807 C 252.267 80.242,249.854 80.919,247.400 81.667 C 243.222 82.941,235.113 85.590,234.200 85.979 C 233.760 86.166,232.770 86.536,232.000 86.800 C 231.230 87.064,230.195 87.443,229.700 87.640 C 229.205 87.838,228.395 88.156,227.900 88.346 C 227.405 88.537,226.460 88.921,225.800 89.200 C 224.272 89.846,222.819 90.427,221.800 90.800 C 219.785 91.538,217.452 92.512,214.600 93.806 C 213.280 94.406,211.495 95.147,210.633 95.454 C 208.672 96.152,194.223 103.353,189.400 106.036 C 187.420 107.137,185.485 108.140,185.100 108.266 C 184.715 108.391,184.400 108.652,184.400 108.847 C 184.400 109.041,184.190 109.200,183.934 109.200 C 182.858 109.200,160.859 122.934,160.183 124.028 C 160.054 124.236,160.062 124.766,160.201 125.204 C 160.641 126.588,162.345 126.130,169.116 122.805 C 172.695 121.047,176.473 119.230,177.512 118.767 C 178.550 118.304,180.390 117.472,181.600 116.919 C 185.503 115.137,187.382 114.305,188.200 114.000 C 189.146 113.647,192.703 112.065,193.695 111.556 C 194.077 111.360,194.752 111.200,195.195 111.200 C 195.638 111.200,196.000 111.020,196.000 110.800 C 196.000 110.580,196.362 110.400,196.805 110.400 C 197.248 110.400,197.923 110.228,198.305 110.019 C 199.692 109.258,213.766 104.585,219.000 103.148 C 219.880 102.906,220.960 102.563,221.400 102.385 C 221.840 102.206,222.650 101.969,223.200 101.858 C 223.750 101.747,224.920 101.451,225.800 101.201 C 228.696 100.379,230.578 99.938,232.103 99.725 C 232.929 99.610,233.705 99.355,233.826 99.158 C 233.948 98.961,234.746 98.800,235.600 98.800 C 236.454 98.800,237.264 98.620,237.400 98.400 C 237.536 98.180,238.436 98.000,239.400 98.000 C 240.364 98.000,241.264 97.820,241.400 97.600 C 241.536 97.380,242.411 97.200,243.344 97.200 C 244.277 97.200,245.211 97.036,245.420 96.835 C 245.629 96.635,246.790 96.371,248.000 96.249 C 249.210 96.127,251.550 95.834,253.200 95.599 C 260.963 94.492,264.414 94.317,278.400 94.323 C 293.595 94.329,299.091 94.563,299.780 95.231 C 299.989 95.434,301.103 95.600,302.256 95.600 C 303.409 95.600,304.464 95.780,304.600 96.000 C 304.736 96.220,305.546 96.400,306.400 96.400 C 307.254 96.400,308.064 96.580,308.200 96.800 C 308.336 97.020,308.968 97.200,309.605 97.200 C 310.241 97.200,311.176 97.361,311.681 97.558 C 312.187 97.755,313.410 98.133,314.400 98.397 C 315.390 98.662,316.513 99.040,316.895 99.239 C 317.277 99.438,317.916 99.600,318.315 99.600 C 318.714 99.600,319.211 99.743,319.420 99.918 C 319.629 100.093,320.520 100.478,321.400 100.773 C 322.280 101.068,324.350 101.933,326.000 102.695 C 327.650 103.457,329.401 104.237,329.892 104.428 C 330.901 104.820,338.471 109.346,339.517 110.183 C 341.852 112.052,347.466 116.867,347.806 117.292 C 348.029 117.571,349.251 119.033,350.521 120.541 C 356.014 127.059,360.634 135.800,362.038 142.331 C 362.258 143.359,362.618 144.920,362.837 145.800 C 364.589 152.856,364.585 166.313,362.828 175.400 C 362.615 176.500,362.258 178.376,362.034 179.568 C 361.476 182.538,359.145 190.530,358.000 193.400 C 357.824 193.840,357.451 194.830,357.170 195.600 C 356.687 196.921,356.112 198.262,353.997 203.000 C 352.557 206.223,349.411 212.428,348.055 214.718 C 347.365 215.882,346.800 216.905,346.800 216.991 C 346.800 218.294,334.622 235.787,327.859 244.200 C 319.946 254.043,302.261 271.988,293.712 278.849 C 292.787 279.592,289.458 282.273,286.315 284.807 C 280.301 289.656,274.610 293.957,270.600 296.687 C 266.805 299.270,266.066 300.094,266.706 301.029 C 267.541 302.249,273.024 300.345,276.600 297.593 C 276.820 297.424,277.650 296.923,278.445 296.480 C 281.338 294.869,281.804 294.596,282.000 294.400 C 282.110 294.290,282.630 293.958,283.155 293.662 C 288.012 290.928,290.274 289.561,293.727 287.274 C 297.824 284.561,305.915 278.912,309.600 276.192 C 311.250 274.974,313.050 273.671,313.600 273.297 C 315.110 272.269,327.105 262.521,328.000 261.595 C 328.110 261.481,329.910 259.918,332.000 258.123 C 351.346 241.502,370.701 217.868,382.874 196.000 C 385.367 191.522,386.030 190.202,388.499 184.800 C 390.866 179.621,394.241 169.895,395.648 164.200 C 396.484 160.819,396.866 158.936,397.068 157.200 C 397.183 156.210,397.440 155.229,397.639 155.020 C 397.837 154.811,398.000 153.362,398.000 151.800 C 398.000 150.238,398.188 148.772,398.418 148.542 C 399.287 147.673,398.442 131.644,397.252 126.400 C 397.027 125.410,396.730 124.060,396.591 123.400 C 396.453 122.740,396.198 121.840,396.025 121.400 C 395.852 120.960,395.494 119.880,395.229 119.000 C 394.600 116.912,394.438 116.524,392.218 111.800 C 388.395 103.665,383.133 97.156,374.829 90.292 C 371.039 87.160,362.127 82.045,356.660 79.864 C 352.857 78.347,346.686 76.400,345.682 76.400 C 345.223 76.400,344.736 76.220,344.600 76.000 C 344.464 75.780,343.744 75.600,343.000 75.600 C 342.256 75.600,341.536 75.420,341.400 75.200 C 341.264 74.980,340.479 74.800,339.656 74.800 C 338.833 74.800,337.989 74.637,337.780 74.437 C 337.571 74.237,336.410 73.965,335.200 73.832 C 333.990 73.699,331.650 73.403,330.000 73.174 C 322.628 72.153,304.808 71.357,303.400 71.986 " stroke="none" fill="#fc6414" fill-rule="evenodd"></path><path id="path2" d="" stroke="none" fill="#585ca8" fill-rule="evenodd"></path><path id="path3" d="" stroke="none" fill="#585ca8" fill-rule="evenodd"></path><path id="path4" d="" stroke="none" fill="#585ca8" fill-rule="evenodd"></path><path id="path5" d="" stroke="none" fill="#585ca8" fill-rule="evenodd"></path></g></svg>