<?xml version="1.0" standalone="no"?>
<!DOCTYPE svg PUBLIC "-//W3C//DTD SVG 20010904//EN"
 "http://www.w3.org/TR/2001/REC-SVG-20010904/DTD/svg10.dtd">
<svg version="1.0" xmlns="http://www.w3.org/2000/svg"
 width="512.000000pt" height="512.000000pt" viewBox="0 0 512.000000 512.000000"
 preserveAspectRatio="xMidYMid meet">
<metadata>
Created by potrace 1.16, written by Peter Selinger 2001-2019
</metadata>
<g transform="translate(0.000000,512.000000) scale(0.100000,-0.100000)"
fill="#000000" stroke="none">
<path d="M270 4569 c-61 -24 -100 -85 -100 -154 0 -111 99 -186 207 -156 l38
11 121 -121 120 -120 -27 -54 c-35 -69 -45 -161 -26 -231 l13 -51 -161 -100
c-159 -99 -162 -100 -184 -82 -39 32 -104 35 -158 8 -64 -32 -93 -77 -93 -144
0 -88 60 -154 147 -162 99 -10 171 55 176 158 l2 53 155 97 155 97 45 -43 c79
-75 119 -90 240 -90 89 0 112 3 151 23 120 59 189 165 197 301 l4 78 72 21 71
21 30 -29 c77 -73 206 -53 256 40 57 105 -21 240 -138 240 -87 0 -144 -44
-164 -126 -11 -41 -14 -44 -72 -63 -78 -27 -84 -26 -101 7 -24 47 -98 114
-155 140 -106 49 -246 39 -342 -23 l-36 -23 -121 121 c-95 95 -119 125 -112
137 18 28 12 120 -10 156 -37 59 -134 89 -200 63z"/>
<path d="M863 3250 c-87 -18 -176 -88 -221 -175 l-27 -50 0 -1115 0 -1115 27
-52 c36 -68 90 -120 158 -152 79 -37 191 -36 271 1 69 32 127 88 160 154 l24
49 0 1115 0 1115 -24 49 c-65 133 -221 207 -368 176z"/>
<path d="M1559 3246 c-95 -25 -167 -85 -214 -176 -30 -56 -32 -191 -5 -262 27
-73 92 -141 168 -176 l57 -27 387 -3 388 -3 2 -902 3 -902 25 -50 c32 -66 90
-121 159 -154 76 -35 202 -37 272 -2 68 32 120 81 154 142 l30 54 3 907 2 907
388 3 c378 3 388 4 436 26 107 49 166 119 193 228 38 154 -36 302 -186 373
l-56 26 -1080 2 c-835 1 -1090 -1 -1126 -11z"/>
</g>
</svg>
